<svg xmlns="http://www.w3.org/2000/svg" version="1.1" viewBox="161.0 40.13 1726.15 1962.83" width="296.60159910402587" height="337.1525989815294"><path d="M 888.870 1740.470 C 865.003 1744.379, 845.791 1752.821, 827.068 1767.626 C 808.997 1781.914, 793.424 1805.622, 786.599 1829.235 C 778.542 1857.105, 779.381 1893.780, 788.697 1921 C 800.501 1955.490, 825.638 1980.725, 860.312 1992.895 C 878.116 1999.144, 886.985 2000.418, 912.500 2000.393 C 931.826 2000.374, 937.400 2000.020, 947.398 1998.177 C 969.642 1994.076, 991.420 1985.041, 1008.529 1972.815 L 1015.967 1967.500 1015.984 1914.250 L 1016 1861 970 1861 L 924 1861 924 1881 L 924 1901 947 1901 L 970 1901 970 1919.903 L 970 1938.806 964.491 1942.462 C 953.045 1950.060, 943.484 1953.218, 926.341 1955.063 C 899.544 1957.948, 875.115 1950.040, 858.041 1932.953 C 849.729 1924.634, 844.501 1916.483, 839.997 1904.824 C 826.564 1870.046, 836.831 1823.856, 862.746 1802.480 C 877.099 1790.640, 893.038 1785.020, 912.292 1785.007 C 936.271 1784.991, 952.626 1792.030, 971.559 1810.515 L 977.210 1816.032 994.096 1799.908 L 1010.982 1783.784 1009.032 1781.045 C 1006.104 1776.933, 994.989 1766.807, 987.674 1761.587 C 974.512 1752.195, 957.567 1745.041, 940 1741.459 C 929.205 1739.259, 899.744 1738.689, 888.870 1740.470 M 163 1869.902 L 163 1995 214.894 1995 C 269.802 1995, 280.836 1994.402, 298.420 1990.473 C 335.479 1982.192, 354.503 1958.205, 352.725 1922 C 351.191 1890.750, 329.933 1870.027, 292.765 1863.548 L 285.500 1862.282 290.500 1861.613 C 312.917 1858.613, 330.132 1844.970, 337.161 1824.632 C 339.452 1818.002, 339.621 1800.855, 337.478 1792.460 C 332.614 1773.405, 319.250 1759.696, 297.970 1751.930 C 282.048 1746.119, 278.570 1745.829, 218.250 1745.294 L 163 1744.804 163 1869.902 M 416 1870 L 416 1995 441 1995 L 466 1995 466 1947.978 L 466 1900.957 485.250 1901.228 L 504.499 1901.500 528.075 1948 L 551.651 1994.500 579.326 1994.766 C 594.547 1994.912, 607 1994.757, 607 1994.422 C 607 1994.087, 594.625 1971.602, 579.500 1944.455 C 564.375 1917.308, 552 1894.914, 552 1894.691 C 552 1894.467, 554.716 1892.608, 558.035 1890.559 C 580.616 1876.621, 592.965 1855.671, 594.657 1828.428 C 595.711 1811.447, 592.133 1794.621, 584.821 1782.180 C 582.994 1779.073, 578.032 1773.064, 573.794 1768.827 C 567.452 1762.487, 564.265 1760.224, 555.794 1756.048 C 535.757 1746.171, 525.959 1745.021, 461.750 1745.009 L 416 1745 416 1870 M 667 1869.983 L 667 1995 692.504 1995 L 718.008 1995 717.754 1870.250 L 717.500 1745.500 692.250 1745.233 L 667 1744.966 667 1869.983 M 1153.656 1745.747 C 1153.393 1746.173, 1133.145 1801.192, 1108.662 1868.011 C 1084.178 1934.830, 1063.675 1990.737, 1063.098 1992.250 L 1062.050 1995 1089.287 1995 L 1116.525 1995 1126.340 1965.500 L 1136.154 1936 1184.340 1936 L 1232.525 1936 1242.340 1965.500 L 1252.154 1995 1279.054 1995 L 1305.954 1995 1301.952 1983.750 C 1299.752 1977.563, 1279.603 1921.425, 1257.177 1859 L 1216.403 1745.500 1185.269 1745.236 C 1168.146 1745.091, 1153.920 1745.321, 1153.656 1745.747 M 1361 1870.071 L 1361 1995.143 1419.250 1994.698 C 1465.572 1994.345, 1479.146 1993.945, 1485.538 1992.742 C 1522.273 1985.828, 1547.745 1971.739, 1565.066 1948.752 C 1581.524 1926.910, 1588.364 1904.031, 1588.311 1871 C 1588.245 1830.277, 1577.689 1801.299, 1555.037 1779.657 C 1541.669 1766.886, 1527.983 1759.088, 1508.500 1753.141 C 1485.841 1746.224, 1471.025 1745.035, 1407.250 1745.015 L 1361 1745 1361 1870.071 M 1654 1870 L 1654 1995 1732.336 1995 L 1810.673 1995 1816.232 1973 L 1821.790 1951 1763.395 1951 L 1705 1951 1705 1919.500 L 1705 1888 1744.762 1888 L 1784.525 1888 1789.799 1867.750 C 1792.699 1856.612, 1795.056 1847.162, 1795.036 1846.750 C 1795.016 1846.338, 1774.750 1846, 1750 1846 L 1705 1846 1705 1817.500 L 1705 1789 1757.803 1789 L 1810.606 1789 1816.209 1767 L 1821.811 1745 1737.906 1745 L 1654 1745 1654 1870 M 212 1815.575 L 212 1848.149 237.750 1847.792 C 262.049 1847.455, 263.836 1847.302, 269.469 1845.064 C 277.242 1841.976, 285.006 1834.366, 287.324 1827.563 C 289.443 1821.343, 289.492 1809.801, 287.425 1803.734 C 284.105 1793.990, 274.031 1786.471, 260.980 1783.996 C 258.091 1783.448, 245.888 1783, 233.864 1783 L 212 1783 212 1815.575 M 466 1823.561 L 466 1861.123 491.750 1860.811 C 516.375 1860.514, 517.730 1860.396, 522.760 1858.122 C 529.625 1855.020, 538.155 1845.875, 540.814 1838.767 C 547.593 1820.650, 542.104 1801.346, 527.425 1791.674 C 520.255 1786.950, 513.788 1786, 488.790 1786 L 466 1786 466 1823.561 M 1412 1870 L 1412 1951 1433.750 1950.992 C 1467.432 1950.979, 1479.702 1949.066, 1496 1941.288 C 1504.108 1937.418, 1506.766 1935.478, 1514.144 1928.037 C 1521.085 1921.037, 1523.584 1917.664, 1526.828 1910.910 C 1533.688 1896.631, 1534.509 1892.211, 1534.432 1870 C 1534.369 1851.695, 1534.197 1849.949, 1531.621 1841.500 C 1525.267 1820.659, 1513.447 1806.715, 1494.812 1798.074 C 1479.453 1790.953, 1466.480 1789.044, 1433.250 1789.017 L 1412 1789 1412 1870 M 1184 1794.177 C 1184 1794.494, 1176.142 1817.984, 1166.537 1846.377 L 1149.074 1898 1184.456 1898 L 1219.838 1898 1202.793 1846.750 C 1188.199 1802.868, 1184 1791.122, 1184 1794.177 M 212.496 1884.149 C 212.209 1884.897, 212.093 1901.707, 212.237 1921.505 L 212.500 1957.500 233.500 1957.793 C 270.477 1958.309, 280.966 1956.086, 291.673 1945.464 C 296.712 1940.464, 298.156 1938.273, 299.536 1933.525 C 301.934 1925.274, 301.257 1911.215, 298.151 1904.807 C 293.628 1895.474, 284.922 1888.931, 272.267 1885.353 C 264.249 1883.086, 213.298 1882.060, 212.496 1884.149" stroke="none" fill="#000000" fill-rule="evenodd"/><path d="M 462.504 522.750 C 466.635 564.769, 495.965 597.900, 535.838 605.586 C 542.078 606.788, 596.283 607, 898.088 607 L 1253 607 1253 561.500 L 1253 516 857.420 516 L 461.841 516 462.504 522.750 M 462.504 699.750 C 464.078 715.758, 469.983 732.780, 478.088 744.673 C 482.847 751.657, 493.542 762.537, 500.656 767.633 C 508.728 773.414, 521.657 779.409, 532.107 782.217 L 540.500 784.472 896.750 784.749 L 1253 785.027 1253 739.014 L 1253 693 857.420 693 L 461.841 693 462.504 699.750 M 462.371 871.208 C 462.130 871.598, 462.398 875.656, 462.966 880.226 C 467.784 918.996, 493.860 949.168, 531.274 959.261 L 539.500 961.480 896.250 961.750 L 1253 962.019 1253 916.260 L 1253 870.500 857.904 870.500 C 640.602 870.500, 462.612 870.819, 462.371 871.208 M 462.503 1053.750 C 464.988 1075.858, 470.463 1089.643, 483.048 1105.480 C 493.909 1119.148, 510.150 1129.933, 528.549 1135.696 L 537.500 1138.500 895.250 1138.760 L 1253 1139.019 1253 1093.510 L 1253 1048 857.428 1048 L 461.856 1048 462.503 1053.750 M 462.511 1231.750 C 466.635 1273.267, 495.669 1306.282, 535.208 1314.415 C 542.159 1315.844, 577.780 1316, 897.958 1316 L 1253 1316 1253 1270.500 L 1253 1225 857.420 1225 L 461.841 1225 462.511 1231.750 M 462.504 1408.750 C 464.693 1431.020, 472.895 1449.371, 487.649 1465.011 C 502.737 1481.005, 521.185 1490.159, 543.974 1492.959 C 549.699 1493.662, 666.074 1494, 902.724 1494 L 1253 1494 1253 1448 L 1253 1402 857.420 1402 L 461.841 1402 462.504 1408.750 M 666.485 1870 C 666.485 1939.025, 666.604 1967.263, 666.750 1932.750 C 666.896 1898.237, 666.896 1841.762, 666.750 1807.250 C 666.604 1772.737, 666.485 1800.975, 666.485 1870 M 212.448 1815.500 C 212.447 1833.650, 212.582 1841.216, 212.748 1832.314 C 212.913 1823.411, 212.914 1808.561, 212.749 1799.314 C 212.583 1790.066, 212.448 1797.350, 212.448 1815.500 M 1423.250 1789.747 C 1429.713 1789.921, 1440.287 1789.921, 1446.750 1789.747 C 1453.213 1789.573, 1447.925 1789.430, 1435 1789.430 C 1422.075 1789.430, 1416.787 1789.573, 1423.250 1789.747 M 1016.466 1914 C 1016.466 1943.425, 1016.593 1955.463, 1016.749 1940.750 C 1016.905 1926.037, 1016.905 1901.963, 1016.749 1887.250 C 1016.593 1872.537, 1016.466 1884.575, 1016.466 1914 M 212.456 1884.255 C 212.191 1884.945, 212.093 1901.707, 212.237 1921.505 L 212.500 1957.500 236 1957.527 L 259.500 1957.554 236.250 1957.259 L 213 1956.964 213 1920.500 L 213 1884.036 236.750 1883.749 L 260.500 1883.462 236.719 1883.231 C 218.395 1883.053, 212.827 1883.288, 212.456 1884.255 M 1724.183 1888.749 C 1735.009 1888.910, 1753.009 1888.910, 1764.183 1888.749 C 1775.358 1888.588, 1766.500 1888.456, 1744.500 1888.456 C 1722.500 1888.455, 1713.358 1888.587, 1724.183 1888.749 M 1423.807 1950.747 C 1430.576 1950.921, 1441.376 1950.920, 1447.807 1950.746 C 1454.238 1950.572, 1448.700 1950.431, 1435.500 1950.431 C 1422.300 1950.432, 1417.038 1950.574, 1423.807 1950.747" stroke="none" fill="#106db6" fill-rule="evenodd"/><path d="M 1427.735 373.301 C 1372.315 418.510, 1310.334 469, 1290.001 485.500 L 1253.032 515.500 1253.016 561.291 L 1253 607.082 1299.250 554.255 C 1324.688 525.201, 1347.750 498.749, 1350.500 495.473 C 1355.815 489.142, 1522.546 298.413, 1526.841 293.750 C 1528.234 292.238, 1529.177 291.023, 1528.937 291.051 C 1528.697 291.078, 1483.156 328.091, 1427.735 373.301 M 1470.272 515.805 C 1438.797 541.487, 1377.063 591.750, 1333.084 627.500 L 1253.124 692.500 1253.062 738.450 C 1253.026 764.998, 1253.372 783.999, 1253.881 783.450 C 1254.366 782.928, 1294.753 736.749, 1343.631 680.832 C 1531.985 465.349, 1528.918 468.876, 1527.833 469.055 C 1527.650 469.085, 1501.748 490.123, 1470.272 515.805 M 1469.129 693.634 C 1435.924 720.796, 1373.712 771.616, 1330.879 806.567 L 1253 870.115 1253 915.785 L 1253 961.455 1255.377 958.977 C 1257.203 957.074, 1391.659 803.453, 1520.813 655.707 C 1526.002 649.771, 1530.079 644.764, 1529.874 644.581 C 1529.668 644.398, 1502.333 666.471, 1469.129 693.634 M 1514 834.119 C 1506.025 840.718, 1444.037 891.420, 1376.250 946.790 L 1253 1047.463 1253 1092.965 L 1253 1138.467 1256.373 1134.983 C 1258.228 1133.068, 1319.718 1062.875, 1393.018 979 C 1466.318 895.125, 1527.204 825.487, 1528.320 824.250 C 1532.843 819.233, 1527.731 822.757, 1514 834.119 M 1459.863 1055.750 C 1421.667 1086.963, 1359.502 1137.700, 1321.717 1168.500 L 1253.019 1224.500 1253.009 1270.450 C 1253.004 1296.054, 1253.380 1315.979, 1253.857 1315.450 C 1257.214 1311.731, 1527.793 1002.082, 1528.872 1000.725 C 1529.627 999.776, 1530.035 999, 1529.778 999 C 1529.521 999, 1498.059 1024.537, 1459.863 1055.750 M 1391.293 1288.824 L 1253.105 1401.500 1253.052 1447.464 C 1253.008 1486.292, 1253.211 1493.201, 1254.362 1491.964 C 1262.359 1483.363, 1530.092 1176.759, 1529.832 1176.499 C 1529.639 1176.305, 1467.296 1226.851, 1391.293 1288.824 M 162.485 1870 C 162.485 1939.025, 162.604 1967.263, 162.750 1932.750 C 162.896 1898.237, 162.896 1841.762, 162.750 1807.250 C 162.604 1772.737, 162.485 1800.975, 162.485 1870 M 223.304 1783.747 C 229.247 1783.924, 238.697 1783.923, 244.304 1783.745 C 249.912 1783.567, 245.050 1783.422, 233.500 1783.423 C 221.950 1783.424, 217.362 1783.570, 223.304 1783.747 M 1412.477 1870 C 1412.477 1914.275, 1412.600 1932.388, 1412.750 1910.250 C 1412.900 1888.113, 1412.900 1851.888, 1412.750 1829.750 C 1412.600 1807.612, 1412.477 1825.725, 1412.477 1870 M 969.417 1919.500 C 969.418 1929.950, 969.566 1934.089, 969.746 1928.698 C 969.926 1923.307, 969.925 1914.757, 969.744 1909.698 C 969.563 1904.639, 969.416 1909.050, 969.417 1919.500" stroke="none" fill="#1a98d5" fill-rule="evenodd"/><path d="M 1559 41.593 C 1509.844 47.485, 1462.566 65.726, 1422.663 94.196 C 1408.780 104.101, 1400.325 111.309, 1386.167 125.307 C 1318.687 192.024, 1288.107 285.369, 1303.057 379 C 1306.728 401.988, 1315.681 432.163, 1324.443 451.074 L 1326.714 455.976 1415.107 383.832 C 1463.723 344.152, 1509.350 306.931, 1516.500 301.119 C 1523.650 295.306, 1528.150 292.127, 1526.500 294.054 C 1524.850 295.981, 1484.575 342.014, 1437 396.350 C 1389.425 450.686, 1350.355 495.547, 1350.177 496.040 C 1349.751 497.225, 1362.052 513.749, 1371.138 524.195 C 1386.088 541.385, 1410.833 563.835, 1413.217 562.371 C 1414.354 561.672, 1519.752 475.888, 1525.970 470.600 C 1528.244 468.666, 1528.323 468.657, 1526.970 470.482 C 1526.161 471.572, 1505.118 495.772, 1480.208 524.260 C 1455.297 552.748, 1434.676 576.682, 1434.383 577.445 C 1433.486 579.781, 1460.904 594.962, 1481.084 603.304 C 1534.258 625.286, 1595.454 631.070, 1652.547 619.510 C 1699.879 609.926, 1745.271 587.908, 1783 556.232 C 1794.419 546.646, 1813.931 526.702, 1823.339 515 C 1839.913 494.387, 1857.583 463.808, 1867.451 438.663 C 1887.334 387.995, 1892.443 328.448, 1881.529 274.549 C 1866.353 199.593, 1822.108 133.527, 1758 90.093 C 1718.384 63.253, 1674.843 47.174, 1626.442 41.512 C 1610.390 39.635, 1574.984 39.677, 1559 41.593 M 887 1738.471 C 851.054 1744.541, 820.427 1763.883, 801.545 1792.439 C 785.668 1816.452, 779.006 1839.676, 779.010 1871 C 779.013 1897.664, 782.943 1916.073, 792.994 1936.500 C 800.109 1950.962, 806.169 1959.153, 817.914 1970.186 C 835.703 1986.896, 860.846 1998.237, 888.322 2001.944 C 898.387 2003.303, 926.106 2003.304, 937.026 2001.947 C 966.853 1998.241, 990.937 1988.823, 1013.250 1972.141 L 1018 1968.589 1018 1913.795 L 1018 1859 970 1859 L 922 1859 922 1881 L 922 1903 945 1903 L 968 1903 968 1919.994 L 968 1936.987 963.750 1940.124 C 952.400 1948.500, 936.071 1952.965, 916.708 1952.987 C 891.839 1953.015, 874.170 1946.148, 858.707 1930.445 C 844.023 1915.533, 836.778 1895.949, 836.717 1871 C 836.673 1853.240, 839.593 1840.602, 847.112 1826 C 854.354 1811.936, 864.485 1801.905, 878.500 1794.923 C 889.025 1789.679, 895.304 1788.065, 908.042 1787.330 C 932.392 1785.926, 949.123 1792.512, 968.526 1811.140 L 977.037 1819.311 984.768 1811.894 C 989.021 1807.815, 997.371 1799.874, 1003.325 1794.248 L 1014.149 1784.019 1012.157 1781.221 C 1008.324 1775.837, 994.425 1763.409, 985.883 1757.726 C 970.494 1747.487, 954.440 1741.407, 935 1738.455 C 923.457 1736.701, 897.428 1736.711, 887 1738.471 M 899 1739.076 C 846.446 1743.007, 803.866 1775.952, 787.526 1825.329 C 782.497 1840.523, 780.681 1852.811, 780.701 1871.500 C 780.766 1932.621, 810.788 1977.262, 863.374 1994.427 C 893.946 2004.407, 937.372 2003.654, 970.495 1992.571 C 983.897 1988.086, 998.912 1980.420, 1009.125 1972.847 L 1017 1967.008 1017 1914.004 L 1017 1861 970.500 1861 L 924 1861 924 1881 L 924 1901 946.500 1901 L 969 1901 969 1920.022 L 969 1939.044 963.025 1942.905 C 948.977 1951.985, 933.549 1955.548, 912 1954.690 C 902.739 1954.321, 896.375 1953.521, 891.734 1952.142 C 861.647 1943.204, 842.082 1920.816, 835.930 1888.288 C 834.104 1878.635, 835.247 1853.311, 837.922 1844.137 C 845.089 1819.562, 858 1802.995, 877.411 1793.465 C 890.693 1786.943, 896.982 1785.550, 913 1785.583 C 937.001 1785.631, 950.696 1791.428, 970.144 1809.775 L 977.002 1816.244 985.251 1808.638 C 989.788 1804.455, 997.695 1797.088, 1002.822 1792.266 L 1012.143 1783.500 1003.322 1774.659 C 982.440 1753.731, 955.738 1741.456, 926.826 1739.495 C 922.247 1739.184, 916.475 1738.786, 914 1738.610 C 911.525 1738.434, 904.775 1738.644, 899 1739.076 M 161 1870 L 161 1997 216.449 1997 C 287.207 1997, 298.394 1995.737, 320 1985.309 C 327.721 1981.582, 330.921 1979.299, 337.091 1973.112 C 349.771 1960.397, 354.948 1946.852, 354.983 1926.299 C 355.003 1914.095, 353.773 1907.585, 349.885 1899.335 C 341.840 1882.265, 329.159 1871.831, 308 1864.872 C 303.325 1863.334, 300.235 1862.059, 301.134 1862.038 C 302.033 1862.017, 306.533 1860.122, 311.134 1857.827 C 320.898 1852.957, 328.521 1845.749, 334.281 1835.939 C 339.893 1826.381, 341.464 1820.252, 341.443 1808 C 341.417 1792.594, 337.618 1781.022, 329.012 1770.135 C 317.911 1756.091, 297.540 1746.620, 272.836 1744.018 C 267.701 1743.477, 240.438 1743.027, 212.250 1743.017 L 161 1743 161 1870 M 414 1869.933 L 414 1997 441 1997 L 468 1997 468 1950 L 468 1903 485.335 1903 L 502.670 1903 526.500 1950 L 550.330 1997 580.665 1997 C 597.349 1997, 611 1996.862, 611 1996.694 C 611 1996.526, 598.400 1973.745, 583 1946.071 C 567.600 1918.397, 555 1895.647, 555 1895.516 C 555 1895.386, 558.038 1893.321, 561.750 1890.930 C 570.031 1885.594, 581.331 1874.192, 585.923 1866.537 C 590.363 1859.137, 594.455 1847.475, 596.023 1837.755 C 597.577 1828.127, 596.773 1807.832, 594.509 1799.500 C 588.367 1776.896, 570.896 1758.240, 548.117 1749.961 C 531.115 1743.782, 530.661 1743.744, 469.750 1743.285 L 414 1742.865 414 1869.933 M 664 1870 L 664 1997 692 1997 L 720 1997 720 1870 L 720 1743 692 1743 L 664 1743 664 1870 M 1151.494 1744.250 C 1151.250 1744.938, 1132.095 1797.250, 1108.926 1860.500 C 1085.758 1923.750, 1065.057 1980.344, 1062.925 1986.265 L 1059.049 1997.030 1088.691 1996.765 L 1118.334 1996.500 1128 1967.500 L 1137.667 1938.500 1184.253 1938.240 L 1230.839 1937.980 1240.657 1967.490 L 1250.475 1997 1279.844 1997 C 1302.928 1997, 1309.112 1996.732, 1308.736 1995.750 C 1308.473 1995.063, 1288.212 1938.700, 1263.712 1870.500 C 1239.212 1802.300, 1218.855 1745.713, 1218.476 1744.750 C 1217.838 1743.133, 1215.289 1743, 1184.862 1743 C 1159.425 1743, 1151.836 1743.284, 1151.494 1744.250 M 1359 1870.063 L 1359 1997.126 1419.750 1996.722 C 1476.656 1996.344, 1481.109 1996.186, 1490.127 1994.238 C 1520.191 1987.742, 1540.812 1977.464, 1557.579 1960.617 C 1574.248 1943.870, 1584.466 1923.588, 1589.128 1898 C 1590.002 1893.207, 1590.478 1883.282, 1590.448 1870.500 C 1590.396 1848.049, 1588.531 1835.411, 1582.884 1819.237 C 1567.573 1775.391, 1529.672 1749.336, 1473.500 1744.039 C 1467.450 1743.468, 1439.213 1743.001, 1410.750 1743.001 L 1359 1743 1359 1870.063 M 1652 1870 L 1652 1997 1732.255 1997 L 1812.511 1997 1818.297 1973.750 C 1821.480 1960.963, 1824.065 1950.162, 1824.042 1949.750 C 1824.019 1949.338, 1797.675 1949, 1765.500 1949 L 1707 1949 1707 1920 L 1707 1891 1746.433 1891 C 1783.114 1891, 1785.903 1890.878, 1786.408 1889.250 C 1787.782 1884.823, 1798 1845.757, 1798 1844.931 C 1798 1844.370, 1779.921 1844, 1752.500 1844 L 1707 1844 1707 1817.500 L 1707 1791 1759.750 1790.996 L 1812.500 1790.992 1818.265 1768.246 C 1821.436 1755.736, 1824.024 1744.938, 1824.015 1744.250 C 1824.003 1743.260, 1806.125 1743, 1738 1743 L 1652 1743 1652 1870 M 162 1870 L 162 1995 218.122 1995 C 277.634 1995, 285.794 1994.510, 303 1989.905 C 312.711 1987.305, 325.032 1981.270, 332.118 1975.640 C 339.163 1970.044, 347.268 1958.089, 350.038 1949.206 C 354.214 1935.816, 354.180 1914.604, 349.964 1903.909 C 344.798 1890.803, 333.472 1878.289, 321.162 1872.087 C 314.093 1868.526, 300.899 1864.321, 293.849 1863.383 L 288.500 1862.672 295.500 1861.305 C 304.464 1859.554, 315.427 1854.220, 321.757 1848.529 C 327.532 1843.337, 334.276 1833.411, 337.127 1825.908 C 341.673 1813.943, 340.237 1794.673, 333.780 1781 C 329.217 1771.337, 318.106 1760.717, 306.779 1755.189 C 287.918 1745.985, 278.984 1745.006, 213.750 1745.003 L 162 1745 162 1870 M 416 1870 L 416 1995 441 1995 L 466 1995 466 1948 L 466 1901 484.921 1901 L 503.842 1901 527.638 1948 L 551.434 1995 579.766 1995 L 608.098 1995 604.606 1988.750 C 602.686 1985.313, 590.125 1962.726, 576.694 1938.558 L 552.273 1894.616 558.189 1891.039 C 571.756 1882.835, 583.764 1868.995, 589.408 1855.056 C 593.864 1844.052, 595.282 1834.500, 594.738 1819.150 C 594.191 1803.726, 592.705 1797.164, 587.234 1786 C 582.017 1775.354, 568.605 1761.947, 557.500 1756.274 C 537.063 1745.834, 530.451 1745.013, 466.750 1745.006 L 416 1745 416 1870 M 666 1870 L 666 1995 692 1995 L 718 1995 718 1870 L 718 1745 692 1745 L 666 1745 666 1870 M 1107.986 1868.750 C 1083.063 1936.813, 1062.472 1993.063, 1062.229 1993.750 C 1061.881 1994.730, 1067.719 1995, 1089.300 1995 L 1116.813 1995 1126.657 1965.750 L 1136.500 1936.500 1184.417 1936.500 L 1232.333 1936.500 1242 1965.500 L 1251.666 1994.500 1278.833 1994.766 C 1293.775 1994.912, 1306 1994.748, 1306 1994.401 C 1306 1994.054, 1285.903 1937.797, 1261.340 1869.385 L 1216.681 1745 1184.990 1745 L 1153.300 1745 1107.986 1868.750 M 1361 1869.986 L 1361 1995.126 1421.250 1994.736 C 1479.181 1994.360, 1481.885 1994.259, 1491.500 1992.112 C 1519.332 1985.896, 1538.145 1976.544, 1554.662 1960.715 C 1579.050 1937.343, 1590.033 1906.791, 1588.712 1866 C 1588.130 1848.027, 1586.439 1836.707, 1582.414 1823.829 C 1571.081 1787.571, 1543.763 1762.115, 1504.904 1751.602 C 1483.438 1745.795, 1483.034 1745.765, 1419.750 1745.289 L 1361 1744.846 1361 1869.986 M 1654 1870 L 1654 1995 1732.433 1995 C 1806.267 1995, 1810.896 1994.897, 1811.382 1993.250 C 1812.562 1989.255, 1822 1952.316, 1822 1951.693 C 1822 1951.321, 1795.787 1950.900, 1763.750 1950.758 L 1705.500 1950.500 1705.236 1919.750 L 1704.971 1889 1744.813 1889 L 1784.654 1889 1789.987 1868.750 C 1792.919 1857.612, 1795.519 1847.942, 1795.762 1847.260 C 1796.110 1846.288, 1786.418 1845.964, 1750.853 1845.760 L 1705.500 1845.500 1705.500 1817.500 L 1705.500 1789.500 1758.185 1789.241 C 1807.267 1789, 1810.906 1788.863, 1811.385 1787.241 C 1812.574 1783.214, 1822 1746.312, 1822 1745.685 C 1822 1745.308, 1784.200 1745, 1738 1745 L 1654 1745 1654 1870 M 213 1815.925 L 213 1848 234.250 1847.983 C 257.978 1847.963, 265.839 1846.844, 274.201 1842.296 C 284.180 1836.868, 289.750 1825.492, 288.680 1812.725 C 287.951 1804.023, 285.158 1798.223, 279.075 1792.772 C 270.598 1785.177, 268.113 1784.650, 238.750 1784.224 L 213 1783.851 213 1815.925 M 215 1815.592 L 215 1846.184 238.750 1845.787 C 260.759 1845.418, 262.935 1845.218, 268.441 1843.051 C 276.526 1839.870, 283.321 1833.024, 285.425 1825.941 C 290.035 1810.419, 284.708 1796.402, 271.806 1790.101 C 263.591 1786.089, 255.660 1785.044, 233.250 1785.020 L 215 1785 215 1815.592 M 466 1823.577 L 466 1861.154 490.750 1860.792 C 513.588 1860.457, 515.936 1860.256, 521.147 1858.181 C 529.102 1855.015, 535.275 1849.219, 539.213 1841.218 C 542.326 1834.895, 542.500 1833.959, 542.500 1823.521 C 542.500 1813.703, 542.212 1811.887, 539.865 1806.880 C 534.515 1795.470, 525.859 1789.079, 513 1787.044 C 509.425 1786.478, 497.387 1786.012, 486.250 1786.008 L 466 1786 466 1823.577 M 468 1823.500 L 468 1859 489.895 1859 C 509.002 1859, 512.618 1858.744, 518.298 1856.990 C 526.552 1854.440, 533.778 1848.188, 537.700 1840.203 C 540.251 1835.006, 540.500 1833.524, 540.500 1823.500 C 540.500 1810.836, 538.676 1805.376, 532.201 1798.664 C 523.774 1789.928, 515.750 1788, 487.816 1788 L 468 1788 468 1823.500 M 1413 1870 L 1413 1950.180 1442.250 1949.757 C 1468.240 1949.381, 1472.392 1949.093, 1479.500 1947.177 C 1517.116 1937.035, 1536.940 1907.528, 1534.668 1865.059 C 1533.331 1840.066, 1525.490 1821.526, 1510.763 1808.535 C 1504.250 1802.790, 1490.109 1795.684, 1479.500 1792.823 C 1472.392 1790.907, 1468.240 1790.619, 1442.250 1790.243 L 1413 1789.820 1413 1870 M 1414 1870 L 1414 1948.161 1442.750 1947.759 C 1468.367 1947.402, 1472.372 1947.121, 1479.500 1945.185 C 1492.985 1941.522, 1503.243 1935.819, 1511.992 1927.121 C 1527.754 1911.451, 1533.952 1892.898, 1532.714 1865.097 C 1531.672 1841.705, 1525.892 1826.904, 1512.522 1813.393 C 1506.146 1806.949, 1502.756 1804.435, 1496 1801.137 C 1480.395 1793.520, 1475.468 1792.697, 1442.750 1792.241 L 1414 1791.839 1414 1870 M 1167.500 1844.647 C 1158.150 1872.495, 1150.355 1895.891, 1150.177 1896.639 C 1149.909 1897.767, 1155.777 1898, 1184.427 1898 C 1203.442 1898, 1219 1897.688, 1219 1897.306 C 1219 1896.501, 1184.939 1793.996, 1184.676 1794.008 C 1184.579 1794.012, 1176.850 1816.800, 1167.500 1844.647 M 1168.357 1848.093 L 1152.214 1896 1184.527 1896 L 1216.841 1896 1200.956 1848.369 C 1192.220 1822.172, 1184.943 1800.614, 1184.786 1800.462 C 1184.629 1800.310, 1177.236 1821.744, 1168.357 1848.093 M 213 1920.500 L 213 1957 238.250 1956.992 C 252.137 1956.988, 266.386 1956.517, 269.914 1955.944 C 283.419 1953.753, 295.025 1945.206, 298.662 1934.774 C 301.405 1926.903, 301.172 1912.040, 298.208 1905.924 C 294.840 1898.974, 289.795 1893.702, 283.096 1890.132 C 273.356 1884.940, 266.730 1884.037, 238.250 1884.017 L 213 1884 213 1920.500 M 215 1920.500 L 215 1955 239.816 1955 C 253.508 1955, 267.293 1954.509, 270.566 1953.906 C 284.445 1951.345, 294.402 1943.084, 297.528 1931.534 C 299.556 1924.043, 299.163 1912.718, 296.667 1906.747 C 294.510 1901.584, 287.391 1894.232, 281.809 1891.403 C 272.819 1886.847, 266.444 1886.031, 239.750 1886.015 L 215 1886 215 1920.500" stroke="none" fill="#fac51e" fill-rule="evenodd"/></svg>